<svg width="373" height="372" viewBox="0 0 373 372" fill="none" xmlns="http://www.w3.org/2000/svg">
<path d="M151.72 27.0781H139.076C139.076 27.0781 134.645 58.9928 122.59 72.4294C111.186 85.175 89.8423 81.6786 89.8423 81.6786C89.8423 81.6786 89.8355 81.6989 89.8219 81.7396C81.5485 79.4832 72.1367 79.9914 65.7132 81.6786C55.6509 84.3415 48.3735 88.9559 48.3735 88.9559C48.3735 88.9559 32.8431 98.7743 33.209 117.517C33.4936 132.051 44.4096 149.37 44.3283 150.61C43.3526 164.474 42.2955 164.006 43.7388 168.946C47.2555 180.939 97.0383 176 97.9124 170.491C98.7255 165.51 96.4081 157.156 97.5668 145.935C99.3963 128.25 103.035 121.948 107.182 111.052C130.03 109.182 144.809 96.2739 149.403 75.5396C154.139 54.1344 151.72 27.0781 151.72 27.0781Z" fill="white"/>
<path fill-rule="evenodd" clip-rule="evenodd" d="M68.1321 176.792C56.2403 176.792 44.9787 174.8 43.3118 169.068C42.3564 165.815 42.4784 164.758 42.9256 160.855C43.1695 158.619 43.5354 155.529 43.8607 150.569C43.8404 150.305 43.1289 148.882 42.3564 147.378C39.3276 141.3 32.9853 128.656 32.7617 117.516C32.3958 98.7539 47.9872 88.6713 48.1295 88.59C48.2108 88.529 55.5898 83.8943 65.6114 81.2517C71.4658 79.6864 80.8573 78.8936 89.6999 81.2517C89.7676 81.2246 89.8354 81.2178 89.9032 81.2313C90.1268 81.272 111.166 84.5244 122.265 72.1448C134.075 58.9521 138.588 27.322 138.629 27.0171C138.649 26.7935 138.853 26.6309 139.076 26.6309H151.72C151.944 26.6309 152.147 26.7935 152.167 27.0374C152.188 27.3017 154.546 54.419 149.85 75.6209C145.154 96.8228 130.112 109.548 107.487 111.479C106.816 113.288 106.125 114.955 105.474 116.581C102.283 124.57 99.5182 131.441 98.014 145.996C97.3635 152.318 97.831 157.766 98.1969 162.136C98.4815 165.612 98.7254 168.356 98.3595 170.572C97.831 173.946 84.313 176 75.3688 176.569C72.9904 176.711 70.5511 176.792 68.1321 176.792ZM77.8284 80.6825C73.1531 80.6825 68.8842 81.3126 65.835 82.1258C55.9557 84.7277 48.6987 89.3015 48.6174 89.3421C48.4751 89.4438 33.3106 99.2621 33.6561 117.516C33.8797 128.432 40.161 140.954 43.1695 146.971C44.4095 149.431 44.7958 150.224 44.7754 150.63C44.4299 155.631 44.064 158.701 43.82 160.957C43.3728 164.819 43.2712 165.734 44.1656 168.824C46.0358 175.207 62.115 176.487 75.3281 175.674C88.1956 174.861 97.1602 172.3 97.4651 170.43C97.8107 168.316 97.5667 165.49 97.3025 162.217C96.9163 157.806 96.4487 152.318 97.1195 145.894C98.6441 131.238 101.429 124.286 104.641 116.256C105.332 114.549 106.023 112.78 106.755 110.89C106.816 110.727 106.958 110.605 107.141 110.585C129.481 108.776 144.341 96.2942 148.955 75.4379C153.326 55.7809 151.578 31.0013 151.293 27.5253H139.462C138.913 31.2249 134.218 60.1514 122.936 72.7343C112.142 84.7887 92.3831 82.4916 90.0048 82.1461C89.9032 82.1867 89.8015 82.2071 89.6999 82.1867C85.7563 81.1094 81.6704 80.6825 77.8284 80.6825Z" fill="#7352AD"/>
<path d="M309.301 349.924H88.6432C81.7927 349.924 76.5685 343.643 77.6662 336.731L125.132 37.5262C125.985 32.0174 130.64 27.9722 136.109 27.9722H356.747C363.597 27.9722 368.821 34.2535 367.724 41.1649L320.278 340.37C319.404 345.879 314.749 349.924 309.301 349.924Z" fill="white"/>
<path fill-rule="evenodd" clip-rule="evenodd" d="M309.301 350.371H88.6431C85.3093 350.371 82.1179 348.887 79.9225 346.326C77.6457 343.663 76.67 340.146 77.2189 336.67L124.684 37.4449C125.579 31.6921 130.396 27.5249 136.108 27.5249H356.746C360.101 27.5249 363.272 29.0088 365.467 31.5701C367.744 34.2331 368.72 37.7498 368.171 41.2258L320.726 340.431C319.811 346.183 314.993 350.371 309.301 350.371ZM136.108 28.4193C130.844 28.4193 126.412 32.2816 125.579 37.5872L78.1133 336.812C77.6051 340.024 78.5198 343.277 80.6136 345.736C82.6464 348.094 85.5736 349.456 88.6431 349.456H309.301C314.546 349.456 318.977 345.614 319.831 340.288L367.276 41.0835C367.784 37.8717 366.89 34.6193 364.776 32.1596C362.763 29.7813 359.836 28.4193 356.746 28.4193H136.108Z" fill="#7352AD"/>
<path d="M302.288 349.13H81.63C74.7796 349.13 69.5553 342.869 70.653 335.978L118.118 37.2813C118.993 31.7928 123.627 27.7476 129.095 27.7476H349.733C356.584 27.7476 361.808 34.0085 360.71 40.92L313.265 339.617C312.391 345.105 307.736 349.13 302.288 349.13Z" fill="white"/>
<path fill-rule="evenodd" clip-rule="evenodd" d="M302.288 349.598H81.6299C78.2758 349.598 75.1047 348.114 72.9093 345.532C70.6326 342.889 69.6568 339.373 70.2057 335.897L117.671 37.2203C118.586 31.4675 123.383 27.3003 129.095 27.3003H349.733C353.087 27.3003 356.258 28.7842 358.474 31.3455C360.731 34.0085 361.706 37.5252 361.157 40.9809L313.712 339.678C312.798 345.43 307.98 349.598 302.288 349.598ZM129.095 28.215C123.83 28.215 119.399 32.057 118.566 37.3626L71.1001 336.039C70.5919 339.251 71.5066 342.503 73.6004 344.943C75.6129 347.321 78.5401 348.683 81.6299 348.683H302.288C307.533 348.683 311.964 344.841 312.818 339.535L360.263 40.8386C360.771 37.6472 359.877 34.3947 357.783 31.935C355.75 29.577 352.823 28.215 349.733 28.215H129.095Z" fill="#7352AD"/>
<path d="M266.206 55.4955H202.235C192.03 55.4955 184.245 46.1244 185.952 35.8589L187.456 26.8536C187.599 25.9389 188.371 25.2681 189.286 25.2681H287.815C288.953 25.2681 289.847 26.3251 289.644 27.4838L288.14 36.611C286.331 47.5067 277.061 55.4955 266.206 55.4955Z" fill="white"/>
<path fill-rule="evenodd" clip-rule="evenodd" d="M266.206 55.9432H202.235C197.315 55.9432 192.619 53.7681 189.408 49.9668C186.094 46.0435 184.671 40.8802 185.505 35.778L187.009 26.7931C187.192 25.6547 188.147 24.8213 189.286 24.8213H287.815C288.485 24.8213 289.116 25.1262 289.563 25.6344C290.01 26.1629 290.213 26.8744 290.091 27.5655L288.587 36.6927C286.717 47.8527 277.325 55.9432 266.206 55.9432ZM189.286 25.736C188.595 25.736 188.005 26.2239 187.903 26.9354L186.399 35.9406C185.606 40.7583 186.948 45.6573 190.099 49.3773C193.148 52.9753 197.579 55.0487 202.235 55.0487H266.206C276.878 55.0487 285.904 47.2632 287.693 36.5301L289.197 27.4232C289.278 26.9964 289.156 26.5492 288.872 26.2239C288.607 25.8987 288.221 25.736 287.815 25.736H189.286Z" fill="#7352AD"/>
<path fill-rule="evenodd" clip-rule="evenodd" d="M221.058 42.5674L225.49 13.8849C226.689 6.14002 233.214 0.448242 240.898 0.448242C250.472 0.448242 257.79 9.22985 256.286 18.9059L252.546 43.2383C252.383 44.2953 251.509 44.9864 250.472 44.9864H223.152C221.851 44.9864 220.855 43.8684 221.058 42.5674ZM240.613 23.0528C243.724 23.0528 246.366 20.7557 246.895 17.6049L246.915 17.422C247.566 13.458 244.577 9.81935 240.634 9.81935C237.524 9.81935 234.861 12.1367 234.353 15.2672L234.332 15.4502C233.661 19.4141 236.67 23.0528 240.613 23.0528Z" fill="white"/>
<path fill-rule="evenodd" clip-rule="evenodd" d="M250.473 45.4336H223.152C222.38 45.4336 221.668 45.1084 221.18 44.5392C220.713 43.9903 220.509 43.2382 220.611 42.4861L225.042 13.8036C226.282 5.81473 232.95 0.000976562 240.898 0.000976562C245.513 0.000976562 249.903 2.03376 252.953 5.59112C256.103 9.27045 257.486 14.1491 256.734 18.9871L252.993 43.3195C252.79 44.5595 251.753 45.4336 250.473 45.4336ZM240.898 0.895398C233.397 0.895398 227.116 6.38391 225.937 13.9458L221.505 42.6284C221.424 43.1162 221.566 43.5838 221.871 43.9497C222.176 44.3156 222.644 44.5189 223.152 44.5189H250.473C251.306 44.5189 251.977 43.97 252.099 43.1772L255.839 18.8448C256.551 14.2711 255.25 9.65668 252.261 6.18063C249.395 2.82654 245.248 0.895398 240.898 0.895398ZM240.614 23.4999C238.621 23.4999 236.751 22.6258 235.45 21.1012C234.109 19.5157 233.54 17.4422 233.885 15.3688L233.905 15.1858C234.454 11.8318 237.3 9.37209 240.634 9.37209C242.626 9.37209 244.496 10.2462 245.797 11.7708C247.139 13.3563 247.708 15.4298 247.362 17.5032L247.342 17.6862C246.773 21.0606 243.947 23.4999 240.614 23.4999ZM234.78 15.5314C234.475 17.3203 234.983 19.1294 236.141 20.5117C237.259 21.833 238.886 22.5852 240.614 22.5852C243.5 22.5852 245.96 20.4711 246.448 17.5439L246.468 17.3609C246.773 15.5517 246.265 13.7426 245.106 12.3603C243.968 11.039 242.341 10.2868 240.634 10.2868C237.727 10.2868 235.288 12.4009 234.8 15.3485L234.78 15.5314Z" fill="#7352AD"/>
<path fill-rule="evenodd" clip-rule="evenodd" d="M243.988 235.436H234.739C233.56 235.436 232.442 234.907 231.67 234.013C230.877 233.078 230.531 231.858 230.714 230.639L249.843 109.546C250.168 107.513 251.855 106.05 253.868 106.05H263.117C264.296 106.05 265.434 106.578 266.207 107.473C267 108.408 267.345 109.627 267.142 110.847L248.013 231.94C247.708 233.972 246.001 235.436 243.988 235.436ZM250.737 109.688L231.609 230.781C231.467 231.736 231.731 232.692 232.361 233.424C232.95 234.135 233.825 234.521 234.739 234.521H243.988C245.554 234.521 246.875 233.383 247.119 231.797L266.247 110.705C266.41 109.749 266.125 108.794 265.516 108.062C264.906 107.351 264.032 106.964 263.117 106.964H253.868C252.303 106.964 250.981 108.103 250.737 109.688Z" fill="#7352AD"/>
<path fill-rule="evenodd" clip-rule="evenodd" d="M217.054 235.436H207.805C206.626 235.436 205.508 234.908 204.736 234.013C203.922 233.098 203.577 231.858 203.78 230.659L217.644 140.627C217.969 138.615 219.656 137.131 221.669 137.131H230.938C232.117 137.131 233.235 137.659 234.008 138.554C234.8 139.489 235.146 140.709 234.963 141.928L221.079 231.94C220.754 233.952 219.067 235.436 217.054 235.436ZM221.669 138.046C220.103 138.046 218.782 139.184 218.538 140.77L204.654 230.781C204.512 231.736 204.797 232.692 205.406 233.424C206.016 234.135 206.89 234.521 207.805 234.521H217.054C218.619 234.521 219.941 233.383 220.185 231.797L234.069 141.786C234.211 140.831 233.947 139.875 233.316 139.143C232.727 138.432 231.853 138.046 230.938 138.046H221.669Z" fill="#7352AD"/>
<path fill-rule="evenodd" clip-rule="evenodd" d="M190.12 235.436H180.871C179.692 235.436 178.574 234.907 177.801 234.013C177.008 233.078 176.663 231.858 176.846 230.638L187.193 163.943C187.518 161.91 189.205 160.447 191.218 160.447H200.487C201.666 160.447 202.784 160.975 203.557 161.869C204.349 162.805 204.695 164.024 204.512 165.244L194.145 231.939C193.84 233.972 192.132 235.436 190.12 235.436ZM188.087 164.085L177.74 230.781C177.598 231.736 177.862 232.692 178.472 233.423C179.082 234.135 179.956 234.521 180.871 234.521H190.12C191.685 234.521 193.006 233.383 193.25 231.797L203.617 165.102C203.76 164.146 203.496 163.191 202.865 162.459C202.276 161.747 201.402 161.361 200.487 161.361H191.218C189.652 161.361 188.331 162.5 188.087 164.085Z" fill="#7352AD"/>
<path fill-rule="evenodd" clip-rule="evenodd" d="M163.185 235.436H153.936C152.757 235.436 151.639 234.908 150.867 234.013C150.074 233.078 149.728 231.859 149.911 230.639L156.741 187.239C157.067 185.227 158.754 183.763 160.766 183.763H170.036C171.215 183.763 172.333 184.271 173.105 185.186C173.898 186.121 174.244 187.341 174.061 188.56L167.21 231.94C166.905 233.973 165.198 235.436 163.185 235.436ZM160.766 184.657C159.201 184.657 157.9 185.816 157.636 187.381L150.806 230.781C150.663 231.737 150.928 232.692 151.558 233.424C152.147 234.135 153.021 234.521 153.936 234.521H163.185C164.751 234.521 166.072 233.383 166.316 231.798L173.166 188.418C173.309 187.463 173.044 186.507 172.414 185.775C171.825 185.064 170.95 184.657 170.036 184.657H160.766Z" fill="#7352AD"/>
<path fill-rule="evenodd" clip-rule="evenodd" d="M136.21 235.436H126.941C125.782 235.436 124.664 234.928 123.892 234.033C123.099 233.118 122.733 231.899 122.916 230.699L126.351 206.489C126.636 204.456 128.364 202.932 130.376 202.932H139.646C140.825 202.932 141.922 203.44 142.695 204.334C143.488 205.249 143.854 206.448 143.691 207.668L140.235 231.878C139.951 233.911 138.223 235.436 136.21 235.436ZM127.246 206.611L123.81 230.821C123.668 231.777 123.953 232.732 124.562 233.444C125.172 234.135 126.046 234.521 126.941 234.521H136.21C137.776 234.521 139.117 233.342 139.341 231.756L142.797 207.546C142.919 206.591 142.634 205.635 142.024 204.924C141.414 204.233 140.56 203.826 139.646 203.826H130.376C128.811 203.826 127.469 205.025 127.246 206.611Z" fill="#7352AD"/>
<path fill-rule="evenodd" clip-rule="evenodd" d="M122.957 267.615C119.562 267.615 116.797 264.81 116.797 261.354C116.797 257.898 119.562 255.093 122.957 255.093C126.351 255.093 129.116 257.898 129.116 261.354C129.116 264.81 126.351 267.615 122.957 267.615ZM122.957 255.987C120.05 255.987 117.712 258.406 117.712 261.354C117.712 264.301 120.05 266.7 122.957 266.7C125.843 266.7 128.201 264.301 128.201 261.354C128.201 258.406 125.843 255.987 122.957 255.987Z" fill="#7352AD"/>
<path fill-rule="evenodd" clip-rule="evenodd" d="M118.078 291.561C114.683 291.561 111.939 288.756 111.939 285.3C111.939 281.845 114.683 279.039 118.078 279.039C121.473 279.039 124.237 281.845 124.237 285.3C124.237 288.756 121.473 291.561 118.078 291.561ZM118.078 279.934C115.191 279.934 112.833 282.332 112.833 285.3C112.833 288.248 115.191 290.646 118.078 290.646C120.985 290.646 123.323 288.248 123.323 285.3C123.323 282.332 120.985 279.934 118.078 279.934Z" fill="#7352AD"/>
<path fill-rule="evenodd" clip-rule="evenodd" d="M113.789 316.666C110.394 316.666 107.629 313.861 107.629 310.405C107.629 306.949 110.394 304.144 113.789 304.144C117.183 304.144 119.928 306.949 119.928 310.405C119.928 313.861 117.183 316.666 113.789 316.666ZM113.789 305.059C110.882 305.059 108.544 307.457 108.544 310.405C108.544 313.353 110.882 315.772 113.789 315.772C116.675 315.772 119.033 313.353 119.033 310.405C119.033 307.457 116.675 305.059 113.789 305.059Z" fill="#7352AD"/>
<path d="M200.609 261.801H139.564C139.32 261.801 139.117 261.598 139.117 261.354C139.117 261.11 139.32 260.907 139.564 260.907H200.609C200.853 260.907 201.056 261.11 201.056 261.354C201.056 261.598 200.853 261.801 200.609 261.801Z" fill="#7352AD"/>
<path d="M196.787 285.544H190.445C190.181 285.544 189.978 285.341 189.978 285.097C189.978 284.853 190.181 284.65 190.445 284.65H196.787C197.031 284.65 197.235 284.853 197.235 285.097C197.235 285.341 197.031 285.544 196.787 285.544Z" fill="white"/>
<path d="M178.838 285.544H135.763C135.499 285.544 135.295 285.341 135.295 285.097C135.295 284.853 135.499 284.65 135.763 284.65H178.838C179.082 284.65 179.285 284.853 179.285 285.097C179.285 285.341 179.082 285.544 178.838 285.544Z" fill="#7352AD"/>
<path d="M191.827 310.08H130.783C130.539 310.08 130.335 309.876 130.335 309.633C130.335 309.389 130.539 309.185 130.783 309.185H191.827C192.071 309.185 192.274 309.389 192.274 309.633C192.274 309.876 192.071 310.08 191.827 310.08Z" fill="#7352AD"/>
<path d="M127.144 151.687C127.144 151.687 136.271 151.565 141.048 149.492C145.825 147.419 145.743 151.017 144.402 152.277C143.304 153.293 136.718 156.973 130.803 157.4L127.144 151.687Z" fill="white"/>
<path fill-rule="evenodd" clip-rule="evenodd" d="M130.803 157.847C130.64 157.847 130.498 157.765 130.416 157.643L126.778 151.931C126.676 151.789 126.676 151.626 126.757 151.484C126.839 151.342 126.981 151.24 127.144 151.24C127.245 151.24 136.23 151.078 140.865 149.065C143.792 147.805 144.91 148.638 145.317 149.248C145.987 150.264 145.52 151.83 144.707 152.602C143.447 153.781 136.718 157.42 130.843 157.847C130.83 157.847 130.816 157.847 130.803 157.847ZM127.957 152.114L131.026 156.932C136.82 156.403 143.182 152.785 144.077 151.931C144.626 151.423 144.971 150.366 144.565 149.756C144.138 149.106 142.918 149.167 141.231 149.899C137.206 151.647 130.315 152.033 127.957 152.114Z" fill="#7352AD"/>
<path d="M113.829 148.274L118.362 139.33L122.57 141.769C122.794 141.911 122.997 142.094 123.139 142.318L123.403 142.725C123.729 143.233 124.318 143.538 124.928 143.497C125.253 143.477 125.579 143.558 125.863 143.721L157.087 161.833C157.344 161.995 157.581 162.178 157.798 162.382L164.242 168.866L155.643 167.362C155.169 167.281 154.715 167.145 154.281 166.955L121.615 151.872C121.33 151.73 121.086 151.526 120.924 151.283L120.883 151.222C120.537 150.734 119.988 150.449 119.399 150.469L119.094 150.49C118.83 150.51 118.565 150.449 118.322 150.347L113.829 148.274Z" fill="white"/>
<path fill-rule="evenodd" clip-rule="evenodd" d="M164.242 169.313C164.215 169.313 164.188 169.313 164.161 169.313L155.562 167.809C155.054 167.728 154.566 167.565 154.099 167.362L121.432 152.278C121.066 152.116 120.761 151.852 120.537 151.526L120.497 151.465C120.253 151.12 119.846 150.916 119.419 150.937H119.135C118.789 150.957 118.444 150.896 118.118 150.754L113.646 148.68C113.545 148.64 113.443 148.538 113.402 148.416C113.382 148.315 113.382 148.172 113.443 148.071L117.956 139.126C118.017 139.025 118.118 138.943 118.24 138.903C118.362 138.862 118.484 138.882 118.586 138.943L122.794 141.383C123.078 141.545 123.343 141.789 123.526 142.074L123.79 142.48C124.034 142.867 124.461 143.07 124.888 143.05C125.314 143.029 125.721 143.131 126.087 143.334L157.31 161.446C157.608 161.622 157.88 161.833 158.123 162.076L164.567 168.561C164.71 168.683 164.73 168.907 164.649 169.069C164.567 169.232 164.405 169.313 164.242 169.313ZM119.48 150.022C120.171 150.022 120.842 150.368 121.249 150.957L121.289 151.018C121.411 151.201 121.594 151.364 121.798 151.445L154.464 166.528C154.871 166.718 155.291 166.853 155.725 166.935L162.921 168.175L157.473 162.707C157.297 162.517 157.093 162.361 156.863 162.239L125.64 144.107C125.416 143.985 125.192 143.944 124.948 143.944C124.176 144.005 123.444 143.619 123.017 142.968L122.753 142.562C122.651 142.399 122.509 142.257 122.347 142.155L118.545 139.96L114.459 148.071L118.505 149.941C118.688 150.022 118.891 150.042 119.074 150.042L119.379 150.022C119.406 150.022 119.44 150.022 119.48 150.022Z" fill="#7352AD"/>
<path d="M156.213 165.288C156.145 165.288 156.084 165.274 156.03 165.247C155.786 165.146 155.684 164.881 155.786 164.658L156.985 161.954C157.087 161.731 157.351 161.629 157.575 161.731C157.798 161.832 157.9 162.097 157.798 162.32L156.619 165.024C156.538 165.186 156.375 165.288 156.213 165.288Z" fill="#7352AD"/>
<path d="M111.105 135.387L117.894 139.046C118.26 139.229 118.382 139.676 118.199 140.021L114.215 147.665C114.032 148.03 113.585 148.173 113.219 147.969L106.45 144.31C105.088 143.579 104.539 141.912 105.251 140.57L107.385 136.484C108.076 135.143 109.743 134.655 111.105 135.387Z" fill="#7352AD"/>
<path fill-rule="evenodd" clip-rule="evenodd" d="M113.565 148.518C113.382 148.518 113.179 148.458 113.016 148.376L106.226 144.717C104.661 143.863 104.031 141.912 104.844 140.347L106.979 136.261C107.365 135.529 108.015 134.98 108.828 134.736C109.662 134.472 110.536 134.574 111.329 134.98L118.118 138.66C118.687 138.964 118.891 139.656 118.606 140.225L114.622 147.888C114.459 148.173 114.215 148.376 113.91 148.458C113.802 148.498 113.687 148.518 113.565 148.518ZM109.763 135.488C109.533 135.488 109.309 135.522 109.093 135.59C108.523 135.773 108.056 136.159 107.771 136.688L105.637 140.774C105.068 141.892 105.515 143.294 106.653 143.924L113.443 147.583C113.511 147.611 113.578 147.617 113.646 147.604C113.727 147.583 113.768 147.522 113.809 147.461L117.793 139.818C117.874 139.676 117.813 139.513 117.691 139.452L110.882 135.773C110.536 135.59 110.15 135.488 109.763 135.488Z" fill="#7352AD"/>
<path d="M121.025 149.595C120.957 149.595 120.889 149.582 120.822 149.555C120.598 149.433 120.517 149.168 120.639 148.945L122.895 144.737C122.997 144.513 123.281 144.432 123.505 144.554C123.708 144.676 123.81 144.94 123.688 145.164L121.431 149.372C121.35 149.514 121.188 149.595 121.025 149.595Z" fill="#7352AD"/>
<path d="M135.681 152.827C135.6 152.827 135.526 152.807 135.458 152.766L126.148 147.542C125.944 147.42 125.863 147.135 125.985 146.912C126.107 146.709 126.371 146.627 126.595 146.749L135.905 151.973C136.129 152.095 136.21 152.36 136.068 152.583C135.986 152.726 135.844 152.827 135.681 152.827Z" fill="#7352AD"/>
<path d="M154.119 163.581C154.038 163.581 153.963 163.56 153.895 163.52L150.257 161.487C150.033 161.365 149.952 161.101 150.074 160.877C150.196 160.653 150.48 160.572 150.704 160.694L154.343 162.727C154.546 162.849 154.627 163.113 154.505 163.337C154.424 163.479 154.261 163.581 154.119 163.581Z" fill="#7352AD"/>
<path d="M112.894 145.326C112.826 145.326 112.752 145.306 112.67 145.265L107.487 142.419C107.263 142.297 107.182 142.033 107.304 141.809C107.426 141.586 107.71 141.505 107.914 141.626L113.117 144.472C113.341 144.594 113.422 144.879 113.3 145.082C113.219 145.245 113.056 145.326 112.894 145.326Z" fill="white"/>
<path d="M110.698 155.267C110.698 155.267 118.769 156.405 124.216 152.197C128.851 148.62 138.222 158.865 139.035 160.166C140.174 162.016 137.673 164.902 134.767 163.276C134.767 163.276 133.994 167.829 127.733 168.602C121.472 169.374 118.789 165.268 117.102 164.658C115.435 164.028 110.617 164.008 110.617 164.008L110.698 155.267Z" fill="white"/>
<path fill-rule="evenodd" clip-rule="evenodd" d="M126.188 169.151C122.346 169.151 120.009 167.321 118.403 166.041C117.813 165.593 117.325 165.207 116.959 165.065C115.374 164.496 110.658 164.455 110.617 164.455C110.495 164.455 110.373 164.414 110.292 164.313C110.211 164.232 110.17 164.13 110.17 164.008L110.231 155.267C110.231 155.125 110.292 155.003 110.394 154.921C110.495 154.84 110.617 154.799 110.759 154.82C110.841 154.84 118.708 155.897 123.932 151.852C124.928 151.1 126.148 150.835 127.591 151.1C132.591 152.014 138.771 158.906 139.422 159.942C140.031 160.918 139.828 162.219 138.913 163.174C138.141 163.988 136.698 164.597 135.051 163.906C134.584 165.228 132.957 168.419 127.794 169.049C127.225 169.117 126.69 169.151 126.188 169.151ZM111.064 163.561C112.325 163.581 115.821 163.703 117.264 164.231C117.773 164.414 118.301 164.821 118.952 165.329C120.659 166.671 123.22 168.704 127.672 168.155C133.506 167.443 134.279 163.357 134.319 163.195C134.34 163.052 134.441 162.931 134.563 162.87C134.706 162.809 134.848 162.809 134.99 162.87C136.393 163.683 137.612 163.235 138.263 162.544C138.791 162.016 139.096 161.142 138.649 160.41C138.121 159.536 132.104 152.828 127.428 151.994C126.229 151.771 125.273 151.954 124.501 152.563C119.683 156.283 113.036 155.958 111.146 155.775L111.064 163.561Z" fill="#7352AD"/>
<path d="M55.8133 90.3181C55.8133 90.3181 44.755 94.9732 38.9209 113.919C35.6888 124.388 36.2783 139.288 52.1746 159.107C55.3661 163.071 59.8179 167.015 64.8592 167.584L113.178 168.072L112.975 152.602C112.975 152.602 75.4906 147.724 69.8598 145.61C64.8795 143.74 57.6632 119.306 56.911 107.332L55.8133 90.3181Z" fill="white"/>
<path d="M113.179 168.519L64.8594 168.051C64.8458 168.051 64.8323 168.051 64.8187 168.051C59.3099 167.421 54.7158 162.99 51.8293 159.392C50.1217 157.257 48.4548 155.102 46.9099 152.968C46.7676 152.765 46.8083 152.48 47.0116 152.338C47.2148 152.196 47.4994 152.236 47.6417 152.44C49.1866 154.554 50.8332 156.708 52.5407 158.843C55.3053 162.299 59.7164 166.547 64.9 167.137L112.731 167.604L112.528 152.988C108.32 152.44 75.0843 148.049 69.7177 146.036C65.2253 144.349 59.9197 127.396 57.7446 116.459C57.704 116.215 57.8463 115.992 58.1105 115.931C58.3545 115.89 58.5781 116.053 58.6391 116.297C61.1394 128.88 66.4246 143.841 70.0226 145.182C75.5518 147.256 112.65 152.094 113.036 152.155C113.26 152.175 113.422 152.358 113.422 152.582L113.646 168.051C113.646 168.173 113.585 168.295 113.504 168.377C113.423 168.458 113.301 168.519 113.179 168.519Z" fill="#7352AD"/>
<path d="M154.261 28.8462C154.83 30.3098 155.928 34.2534 154.098 36.896C152.472 39.2541 149.077 39.3557 147.146 37.2213C146.13 36.1032 145.642 34.2941 144.89 31.7124C144.504 30.4521 143.955 29.578 143.345 28.7852C142.938 28.277 142.329 27.9721 141.678 27.9721L135.925 27.9518C135.925 27.9518 135.986 25.7157 137.653 24.8213C139.117 24.0285 142.898 24.679 143.203 24.2318C146.516 19.2515 152.005 22.9512 154.261 28.8462Z" fill="white"/>
<path fill-rule="evenodd" clip-rule="evenodd" d="M150.541 39.193C149.138 39.193 147.776 38.6035 146.801 37.5262C145.784 36.4081 145.276 34.6803 144.585 32.3019L144.443 31.8344C144.077 30.5741 143.508 29.7203 142.979 29.0698C142.674 28.6632 142.186 28.4396 141.678 28.4193L135.925 28.399C135.803 28.399 135.702 28.3583 135.62 28.2567C135.519 28.1754 135.478 28.0534 135.478 27.9314C135.478 27.8298 135.559 25.4311 137.429 24.4147C138.385 23.9065 140.031 23.9269 141.373 23.9472C141.942 23.9472 142.633 23.9675 142.877 23.9065C144.402 21.6501 146.211 21.3452 147.451 21.4875C150.236 21.7924 153.143 24.679 154.688 28.6836C155.013 29.5577 156.578 34.0704 154.485 37.1399C153.651 38.3393 152.35 39.0914 150.887 39.193C150.778 39.193 150.663 39.193 150.541 39.193ZM136.433 27.5045L141.678 27.5249C142.471 27.5249 143.223 27.8908 143.69 28.5209C144.26 29.2324 144.89 30.1675 145.317 31.5904L145.459 32.0377C146.109 34.3144 146.597 35.9609 147.471 36.9163C148.346 37.8717 149.565 38.3799 150.826 38.2783C152.005 38.197 153.062 37.6075 153.732 36.6317C155.582 33.9485 154.139 29.8016 153.834 29.0088C152.452 25.3701 149.789 22.6462 147.349 22.3819C145.886 22.2193 144.605 22.9308 143.569 24.4757C143.325 24.8619 142.755 24.8619 141.353 24.8619C140.194 24.8416 138.609 24.8213 137.856 25.2075C136.881 25.736 136.555 26.8744 136.433 27.5045Z" fill="#7352AD"/>
<path d="M60.2042 315.161L56.6875 332.073L65.9163 334.675L70.9983 318.23L60.2042 315.161Z" fill="white"/>
<path fill-rule="evenodd" clip-rule="evenodd" d="M65.9163 335.123C65.8757 335.123 65.835 335.123 65.7944 335.123L56.5656 332.501C56.342 332.44 56.1997 332.216 56.2403 331.972L59.7774 315.08C59.7977 314.958 59.8587 314.836 59.9806 314.775C60.0823 314.714 60.2042 314.693 60.3262 314.734L71.1203 317.783C71.2422 317.824 71.3439 317.905 71.4049 318.007C71.4658 318.108 71.4658 318.23 71.4455 318.352L66.3432 334.818C66.2823 335.001 66.0993 335.123 65.9163 335.123ZM57.2161 331.748L65.6114 334.127L70.4291 318.535L60.5498 315.73L57.2161 331.748Z" fill="#7352AD"/>
<path d="M53.6383 346.323C53.7399 347.95 55.732 349.251 57.3379 349.495C62.9281 350.328 76.0801 349.982 79.6375 350.226C84.2723 350.552 92.9725 350.206 93.3181 347.238C93.7247 343.64 89.8421 338.375 80.5523 335.509C75.7346 334.005 70.6526 326.626 68.3962 326.504C66.1602 326.361 62.1759 332.196 62.1759 332.196L55.7727 330.021C55.7727 330.021 53.1097 338.07 53.6383 346.323Z" fill="white"/>
<path fill-rule="evenodd" clip-rule="evenodd" d="M82.5646 350.755C80.8571 350.755 79.6578 350.674 79.6171 350.674C78.3974 350.592 75.9988 350.572 73.2138 350.572C67.766 350.531 60.9562 350.491 57.2768 349.942C55.3864 349.657 53.2926 348.133 53.191 346.344C52.6624 338.111 55.3051 329.96 55.3254 329.878C55.366 329.756 55.4474 329.675 55.5693 329.614C55.671 329.553 55.7929 329.553 55.9149 329.594L61.9929 331.667C62.9077 330.387 66.2211 325.914 68.4368 326.057C69.5955 326.118 71.1607 327.622 73.1529 329.513C75.3686 331.627 78.1128 334.269 80.6742 335.062C90.2892 338.05 94.1921 343.498 93.7652 347.299C93.4197 350.308 86.6099 350.755 82.5646 350.755ZM56.0572 330.59C55.5287 332.379 53.6382 339.311 54.0854 346.283C54.1667 347.625 55.9149 348.824 57.3988 349.048C61.0375 349.596 67.7863 349.637 73.2342 349.657C76.0191 349.678 78.4178 349.698 79.6781 349.779C84.8413 350.125 92.6066 349.556 92.8708 347.198C93.2774 343.64 89.1305 338.64 80.4099 335.936C77.6453 335.082 74.7994 332.358 72.5227 330.163C70.8152 328.537 69.2093 326.992 68.3758 326.951C66.9122 326.87 64.0257 330.285 62.5418 332.46C62.4198 332.623 62.2165 332.684 62.0336 332.623L56.0572 330.59Z" fill="#7352AD"/>
<path d="M84.9835 346.364C83.7435 346.364 82.4019 346.283 80.979 346.222C78.8852 346.1 76.6898 345.998 74.5554 346.1C69.6767 346.324 65.5095 346.12 62.8669 345.917C57.9882 345.551 57.7849 345.246 57.7239 345.124C57.6426 344.982 57.6223 344.819 57.7036 344.657C57.8256 344.453 58.0898 344.372 58.3135 344.474C58.3135 344.487 58.3135 344.494 58.3135 344.494C59.1062 344.697 65.8957 345.592 74.5147 345.185C76.6898 345.084 78.9055 345.205 81.0399 345.307C84.2517 345.49 87.3009 345.653 89.0694 344.901C89.293 344.799 89.5573 344.901 89.6589 345.124C89.7606 345.368 89.6589 345.632 89.415 345.714C88.2766 346.222 86.752 346.364 84.9835 346.364Z" fill="#7352AD"/>
<path d="M73.0513 340.571C72.9294 340.571 72.8074 340.53 72.7261 340.429C72.5431 340.266 72.5431 339.981 72.7261 339.799L76.1005 336.343C76.2631 336.16 76.5477 336.16 76.7307 336.343C76.9136 336.505 76.9136 336.79 76.7307 336.973L73.3562 340.429C73.2749 340.51 73.153 340.571 73.0513 340.571Z" fill="#7352AD"/>
<path d="M10.198 314.368L9.73047 326.158L17.9632 328.13L19.4268 314.449L10.198 314.368Z" fill="white"/>
<path fill-rule="evenodd" clip-rule="evenodd" d="M17.9632 328.597C17.9225 328.597 17.8886 328.591 17.8615 328.577L9.62877 326.585C9.42549 326.544 9.2832 326.341 9.2832 326.138L9.75074 314.348C9.77107 314.104 9.95402 313.9 10.198 313.9L19.4268 313.982C19.5691 314.002 19.691 314.043 19.7723 314.144C19.8537 314.246 19.8943 314.368 19.874 314.49L18.4104 328.191C18.3901 328.313 18.3291 328.435 18.2274 328.516C18.1461 328.557 18.0648 328.597 17.9632 328.597ZM10.198 325.792L17.5769 327.581L18.9186 314.896L10.6452 314.815L10.198 325.792Z" fill="#7352AD"/>
<path d="M19.2234 349.576C15.9303 350.044 10.5435 350.247 4.16052 349.576C1.31463 349.271 0.196599 345.307 0.684466 343.254C2.08708 337.562 4.52642 328.374 8.65297 323.353L10.1776 326.423L11.6005 323.435C11.8038 323.089 12.1493 322.845 12.5559 322.804L15.6457 322.825C16.2962 322.743 16.8857 323.17 17.028 323.821L17.5159 326.179L20.1585 323.13L22.2116 345.612C22.4759 347.523 21.1342 349.312 19.2234 349.576Z" fill="white"/>
<path fill-rule="evenodd" clip-rule="evenodd" d="M12.19 350.45C9.91326 350.45 7.20966 350.348 4.11984 350.023C3.02214 349.901 2.0464 349.291 1.33493 348.275C0.196575 346.649 -0.06769 344.474 0.257555 343.152C1.92443 336.302 4.36377 327.846 8.30737 323.068C8.409 322.947 8.5513 322.886 8.71392 322.906C8.85622 322.926 8.99851 323.028 9.0595 323.15L10.1572 325.386L11.1939 323.231C11.4785 322.743 11.946 322.418 12.4949 322.357C12.5084 322.343 12.5288 322.337 12.5559 322.337L15.605 322.377C16.4791 322.276 17.2923 322.865 17.4752 323.719L17.7801 325.183L19.8129 322.845C19.9349 322.703 20.1178 322.642 20.3008 322.703C20.4634 322.764 20.5854 322.906 20.6057 323.089L22.6588 345.571C22.9434 347.706 21.4391 349.718 19.2844 350.023C18.1054 350.186 15.666 350.45 12.19 350.45ZM8.57163 324.207C4.50607 329.573 2.16837 339.168 1.13165 343.356C0.867393 344.453 1.091 346.364 2.06673 347.746C2.65624 348.58 3.36771 349.027 4.20115 349.129C9.58802 349.698 15.1782 349.698 19.1624 349.129C20.809 348.905 21.988 347.34 21.7644 345.673L19.8129 324.227L17.8614 326.463C17.7598 326.606 17.5768 326.646 17.4142 326.606C17.2313 326.565 17.1093 326.443 17.0686 326.26L16.5808 323.902C16.4995 323.495 16.1132 323.231 15.6864 323.272C15.6728 323.272 15.6525 323.272 15.6254 323.272L12.5762 323.251C12.3323 323.292 12.129 323.434 12.007 323.658L10.5841 326.606C10.5028 326.768 10.3401 326.87 10.1775 326.87C10.0149 326.87 9.85228 326.768 9.77097 326.626L8.57163 324.207Z" fill="#7352AD"/>
<path d="M10.0557 346.771C7.94164 346.771 5.66493 346.588 3.38822 346.06C3.14429 345.999 2.98166 345.755 3.04265 345.511C3.10363 345.267 3.34756 345.125 3.5915 345.186C11.3364 346.954 19.4675 344.677 19.5488 344.657C19.7724 344.576 20.0367 344.718 20.0977 344.962C20.1587 345.206 20.0367 345.45 19.7927 345.511C19.5488 345.592 15.341 346.771 10.0557 346.771Z" fill="#7352AD"/>
<path d="M8.16493 338.05C7.92099 338.05 7.71771 337.847 7.71771 337.603C7.69738 337.359 7.90066 337.156 8.1446 337.136L15.5642 336.892C15.8082 336.892 16.0318 337.075 16.0318 337.339C16.0318 337.583 15.8488 337.786 15.6049 337.786L8.18525 338.05C8.1717 338.05 8.16493 338.05 8.16493 338.05Z" fill="#7352AD"/>
<path d="M97.1195 173.132C100.23 191.407 105.901 236.311 93.6638 269.892C83.1136 298.819 75.5923 313.211 72.6855 318.435C71.8927 319.858 70.3275 320.651 68.7012 320.448L61.1799 319.492C58.9642 319.187 57.399 317.114 57.7649 314.898C60.5091 297.701 71.4048 213.971 68.498 206.246L21.8253 315.976C21.3171 317.134 20.1584 317.886 18.8981 317.886L11.0109 317.785C9.24242 317.764 7.86012 316.301 7.90078 314.553C10.2181 225.72 36.2377 211.43 43.8403 168.965C43.8607 168.863 46.3406 171.851 46.4423 171.912C54.0652 176.324 57.8868 175.978 69.5957 176.629C82.2395 177.32 94.0093 172.543 96.7739 172.665C96.9975 172.665 97.0788 172.929 97.1195 173.132Z" fill="#7352AD"/>
<path d="M83.1747 88.0402L85.3295 76.9819C85.4718 76.2298 86.0816 75.681 86.8337 75.5996L91.1839 75.0914C92.0986 74.9898 92.8508 74.2783 92.9931 73.3636L93.9688 67.1839C93.9823 67.1839 93.9891 67.1772 93.9891 67.1636L96.0626 66.0456C96.4691 65.822 96.6317 65.3138 96.4081 64.9072L94.2331 60.6587C93.8062 59.8253 93.237 55.1499 92.3019 55.2108C92.3019 55.2108 76.6902 49.763 72.0961 56.2476C70.8967 57.9551 70.7544 60.2318 71.5676 62.163L72.6246 64.643C73.7223 67.2043 73.9662 70.0908 73.1328 72.7537C72.8279 73.7092 72.4213 74.6239 71.8725 75.498L66.0181 84.6455C70.2666 86.7799 74.9623 87.9183 79.7393 87.9996L83.1747 88.0402Z" fill="white"/>
<path fill-rule="evenodd" clip-rule="evenodd" d="M83.1745 88.5077C83.1609 88.5077 83.1542 88.5077 83.1542 88.5077L79.7188 88.4467C74.9214 88.3857 70.1037 87.2067 65.8145 85.052C65.6926 84.991 65.6113 84.8893 65.5706 84.7674C65.5503 84.6251 65.5706 84.5031 65.6316 84.4015L71.5063 75.254C72.0145 74.4205 72.4008 73.5464 72.7057 72.6317C73.4781 70.1517 73.2952 67.3668 72.2178 64.8055L71.1608 62.3458C70.246 60.2114 70.4696 57.772 71.7299 55.9832C76.3647 49.458 91.1227 54.3163 92.383 54.7432C93.2368 54.8245 93.6433 56.3288 94.1922 58.7478C94.3548 59.4796 94.5174 60.2114 94.6394 60.4553L96.8144 64.7038C97.1397 65.334 96.8958 66.1064 96.2656 66.452L94.3954 67.4684L93.44 73.4244C93.2571 74.5425 92.3627 75.4166 91.2243 75.5385L86.8945 76.0467C86.3253 76.1077 85.8781 76.5143 85.7561 77.0835L83.6014 88.1418C83.5607 88.345 83.3778 88.5077 83.1745 88.5077ZM66.6683 84.4624C70.7339 86.4139 75.2263 87.471 79.7391 87.5523L82.7883 87.5929L84.882 76.9005C85.065 75.9451 85.8374 75.254 86.7928 75.1523L91.1227 74.6441C91.8545 74.5628 92.444 74.014 92.5456 73.2822L93.5213 67.1228C93.562 66.9805 93.6636 66.8382 93.7856 66.7773L95.8387 65.6592C96.0217 65.5576 96.103 65.2933 96.0013 65.1104L93.8263 60.8619C93.684 60.5366 93.5417 59.9268 93.3181 58.9511C93.0945 57.9753 92.6472 55.9425 92.2813 55.6579C92.2407 55.6444 92.2 55.6376 92.1594 55.6376C92.0171 55.5766 76.8119 50.3727 72.4821 56.5117C71.3844 58.0363 71.2014 60.1301 71.9942 61.9799L73.0512 64.4599C74.2099 67.2245 74.3929 70.2127 73.5594 72.8959C73.2545 73.892 72.8073 74.8474 72.2585 75.7215L66.6683 84.4624Z" fill="#7352AD"/>
<path d="M80.1252 62.0811C79.3325 60.089 78.0721 59.3369 78.3161 58.2188C78.4584 57.5277 79.0479 57.1008 79.3731 56.8569C81.0603 55.6575 83.2557 56.3893 87.6668 57.2228C93.135 58.2595 93.7652 58.4221 94.8019 57.9952C97.4242 56.9585 98.9081 53.7264 99.0301 51.0838C99.0707 50.3316 99.1317 46.3677 95.7573 44.3349C93.3383 42.851 90.0859 42.973 87.4636 44.5992C87.24 43.8267 86.7521 42.7494 85.7154 42.2208C83.2354 40.9402 79.5561 43.7861 78.2551 44.7821C77.0761 45.6969 74.9416 47.6077 73.4171 50.9821C72.9292 50.6975 71.0997 49.7625 69.1076 50.3926C66.1397 51.348 65.4282 54.9664 65.3469 55.3119C64.6151 59.3165 67.9082 62.7926 70.3882 65.4352C71.7502 66.8785 72.482 67.4476 73.2748 67.9762C73.7423 68.3014 74.3725 68.3217 74.8603 68.0372C74.8739 68.0372 74.8874 68.0372 74.901 68.0372C75.5515 67.6713 75.7751 66.8175 75.3685 66.1873L75.2466 65.984C74.779 65.2116 74.4538 64.3578 74.3521 63.4634C74.2708 62.7519 74.3318 61.9998 74.779 61.6136C75.5312 61.0037 76.7915 61.4103 76.9744 61.4713C77.8892 61.7559 78.4787 62.447 78.8243 63.0975C79.2105 63.7886 80.4911 62.9755 80.1252 62.0811Z" fill="#7352AD"/>
<path fill-rule="evenodd" clip-rule="evenodd" d="M37.539 46.6118C37.3899 46.6118 37.234 46.605 37.0714 46.5915C35.1199 46.3272 33.697 44.5384 33.9206 42.6072C34.0222 41.6722 34.4898 40.8387 35.2419 40.2492C35.994 39.6597 36.9291 39.3954 37.8845 39.5174C39.8563 39.7817 41.2589 41.5705 41.0557 43.5017C40.9337 44.4367 40.4865 45.2702 39.7344 45.8597C39.1042 46.3475 38.3521 46.6118 37.539 46.6118ZM34.815 42.7089C34.6524 44.1521 35.7298 45.4938 37.1934 45.6767C37.9048 45.7784 38.6163 45.5954 39.1855 45.1482C39.7343 44.7213 40.0799 44.0912 40.1612 43.4C40.3239 41.9567 39.2465 40.6151 37.7829 40.4322C37.0511 40.3305 36.3599 40.5135 35.7908 40.9607C35.2419 41.3876 34.8963 42.0177 34.815 42.7089Z" fill="#7352AD"/>
<path d="M23.9192 53.2597C23.8378 53.2597 23.7565 53.2394 23.6752 53.1987L20.6667 51.4099C20.4634 51.2879 20.3821 51.0033 20.5041 50.8001C20.6464 50.5765 20.9106 50.5155 21.1342 50.6374L24.1428 52.4263C24.3664 52.5483 24.4274 52.8329 24.3054 53.0361C24.2241 53.1784 24.0615 53.2597 23.9192 53.2597Z" fill="#7352AD"/>
<path d="M30.9322 57.4066C30.8509 57.4066 30.7763 57.3863 30.7086 57.3457L27.6797 55.5771C27.4764 55.4349 27.3951 55.1706 27.5374 54.947C27.6594 54.7437 27.944 54.6624 28.1473 54.7844L31.1558 56.5732C31.3794 56.6952 31.4404 56.9798 31.3184 57.2034C31.2371 57.3457 31.0948 57.4066 30.9322 57.4066Z" fill="#7352AD"/>
<path d="M22.9436 59.4595C22.8623 59.4595 22.7877 59.4391 22.72 59.3985C22.4964 59.2765 22.4354 58.9919 22.5574 58.7886L24.3462 55.7598C24.4682 55.5565 24.7528 55.4752 24.956 55.6175C25.1796 55.7395 25.2406 56.0037 25.1187 56.2273L23.3298 59.2359C23.2485 59.3782 23.1062 59.4595 22.9436 59.4595Z" fill="#7352AD"/>
<path d="M27.1108 52.4464C27.0295 52.4464 26.9482 52.4261 26.8669 52.3855C26.6636 52.2432 26.5823 51.9789 26.7043 51.7553L28.4931 48.7468C28.6151 48.5435 28.8997 48.4622 29.1233 48.5842C29.3266 48.7061 29.4079 48.9907 29.2656 49.2143L27.4971 52.2228C27.4157 52.3651 27.2531 52.4464 27.1108 52.4464Z" fill="#7352AD"/>
<path d="M339.996 371.552H182.049C172.576 371.552 165.482 362.832 167.393 353.542L191.339 237.003C193.372 227.205 201.991 220.171 211.992 220.171H347.477L339.996 371.552Z" fill="white"/>
<path fill-rule="evenodd" clip-rule="evenodd" d="M339.996 372H182.049C177.394 372 173.044 369.926 170.096 366.328C167.149 362.71 166.01 358.014 166.945 353.461L190.912 236.921C192.945 226.961 201.828 219.724 211.992 219.724H347.477C347.599 219.724 347.72 219.765 347.802 219.866C347.883 219.948 347.924 220.07 347.924 220.192L340.463 371.573C340.443 371.817 340.24 372 339.996 372ZM211.992 220.619C202.255 220.619 193.758 227.55 191.786 237.104L167.819 353.644C166.945 357.933 168.023 362.344 170.787 365.759C173.572 369.154 177.658 371.105 182.049 371.105H339.569L347.009 220.619H211.992Z" fill="#7352AD"/>
<path d="M360.222 371.552H329.568C320.095 371.552 313.001 362.832 314.912 353.542L341.297 225.192C341.907 222.265 344.468 220.171 347.456 220.171H355.323C358.596 220.171 361.32 222.671 361.584 225.944L372.378 358.36C372.968 365.454 367.357 371.552 360.222 371.552Z" fill="white"/>
<path fill-rule="evenodd" clip-rule="evenodd" d="M360.222 372H329.568C324.913 372 320.563 369.926 317.615 366.328C314.688 362.71 313.529 358.014 314.464 353.461L340.87 225.091C341.5 221.981 344.265 219.724 347.456 219.724H355.323C358.82 219.724 361.747 222.428 362.031 225.904L372.826 358.319C373.13 361.836 371.911 365.332 369.532 367.914C367.134 370.516 363.759 372 360.222 372ZM347.456 220.619C344.692 220.619 342.293 222.57 341.744 225.274L315.359 353.644C314.464 357.933 315.542 362.344 318.327 365.759C321.091 369.154 325.197 371.105 329.568 371.105H360.222C363.556 371.105 366.605 369.743 368.862 367.304C371.077 364.905 372.195 361.653 371.931 358.38L361.137 225.985C360.893 222.977 358.352 220.619 355.323 220.619H347.456Z" fill="#7352AD"/>
<path d="M350.465 367.445H329.568C326.295 367.445 323.225 365.982 321.152 363.441C319.078 360.9 318.265 357.586 318.936 354.374L327.596 312.235C327.636 311.991 327.88 311.828 328.124 311.889C328.368 311.93 328.531 312.174 328.47 312.418L319.81 354.557C319.2 357.505 319.953 360.534 321.843 362.871C323.754 365.209 326.559 366.53 329.568 366.53H350.465C350.709 366.53 350.912 366.734 350.912 366.998C350.912 367.242 350.709 367.445 350.465 367.445Z" fill="#7352AD"/>
<path d="M360.222 367.445C359.978 367.445 359.775 367.242 359.775 366.998C359.775 366.734 359.978 366.531 360.222 366.531C362.255 366.531 364.145 365.717 365.507 364.213C366.89 362.729 367.56 360.778 367.398 358.765L364.938 328.579C364.918 328.335 365.101 328.111 365.345 328.091C365.589 328.07 365.812 328.253 365.833 328.518L368.292 358.684C368.475 360.961 367.723 363.156 366.178 364.823C364.633 366.51 362.519 367.445 360.222 367.445Z" fill="#7352AD"/>
<path d="M358.535 245.011C358.311 245.011 358.108 244.848 358.087 244.604L357.579 238.323C357.559 238.059 357.742 237.856 357.986 237.835C358.23 237.815 358.453 237.998 358.474 238.242L358.982 244.523C359.002 244.787 358.819 244.991 358.575 245.011C358.562 245.011 358.548 245.011 358.535 245.011Z" fill="#7352AD"/>
<path d="M338.532 261.761C338.492 261.761 338.458 261.754 338.431 261.74C338.187 261.7 338.024 261.456 338.085 261.212L345.322 226.004C345.525 225.008 346.42 224.276 347.456 224.276H355.323C356.461 224.276 357.417 225.15 357.498 226.268L357.844 230.395C357.864 230.639 357.661 230.863 357.417 230.883C357.173 230.903 356.949 230.72 356.929 230.456L356.604 226.35C356.543 225.699 355.994 225.171 355.323 225.171H347.456C346.846 225.171 346.318 225.598 346.216 226.187L338.959 261.395C338.919 261.619 338.736 261.761 338.532 261.761Z" fill="#7352AD"/>
<path d="M318.489 281.805H194.815C194.55 281.805 194.347 281.602 194.347 281.358C194.347 281.094 194.55 280.89 194.815 280.89H318.489C321.965 280.89 324.933 278.532 325.746 275.158L336.642 229.115C336.703 228.871 336.947 228.729 337.191 228.77C337.435 228.831 337.577 229.075 337.516 229.319L326.62 275.361C325.726 279.162 322.372 281.805 318.489 281.805Z" fill="#7352AD"/>
<path d="M270.759 281.359L267.283 295.324C266.735 297.702 264.62 299.369 262.181 299.369H237.686C235.023 299.369 233.092 296.828 233.803 294.246L237.402 281.359H270.759Z" fill="white"/>
<path fill-rule="evenodd" clip-rule="evenodd" d="M262.181 299.816H237.686C236.284 299.816 234.983 299.166 234.129 298.048C233.275 296.93 232.991 295.486 233.377 294.125L236.954 281.237C237.015 281.033 237.198 280.891 237.402 280.891H270.76C270.882 280.891 271.024 280.952 271.105 281.074C271.187 281.176 271.227 281.318 271.187 281.46L267.731 295.446C267.121 298.007 264.844 299.816 262.181 299.816ZM237.727 281.806L234.251 294.368C233.946 295.466 234.149 296.604 234.84 297.499C235.532 298.393 236.568 298.922 237.686 298.922H262.181C264.417 298.922 266.328 297.397 266.836 295.222L270.17 281.806H237.727Z" fill="#7352AD"/>
<path d="M307.187 360.291H175.808C175.564 360.291 175.361 360.088 175.361 359.844C175.361 359.6 175.564 359.396 175.808 359.396H307.187C307.451 359.396 307.654 359.6 307.654 359.844C307.654 360.088 307.451 360.291 307.187 360.291Z" fill="#7352AD"/>
<path d="M243.195 214.886H232.95C230.165 214.886 227.929 217.122 227.929 219.907H248.216C248.216 217.122 245.959 214.886 243.195 214.886Z" fill="white"/>
<path fill-rule="evenodd" clip-rule="evenodd" d="M248.216 220.354H227.929C227.685 220.354 227.481 220.151 227.481 219.907C227.481 216.878 229.921 214.439 232.95 214.439H243.195C246.203 214.439 248.663 216.878 248.663 219.907C248.663 220.151 248.46 220.354 248.216 220.354ZM228.396 219.44H247.748C247.504 217.143 245.553 215.333 243.195 215.333H232.95C230.571 215.333 228.62 217.143 228.396 219.44Z" fill="#7352AD"/>
<path d="M325.401 214.886H315.135C312.371 214.886 310.114 217.122 310.114 219.907H330.401C330.401 217.122 328.165 214.886 325.401 214.886Z" fill="#7352AD"/>
<path fill-rule="evenodd" clip-rule="evenodd" d="M330.401 220.354H310.114C309.87 220.354 309.667 220.151 309.667 219.907C309.667 216.878 312.127 214.439 315.135 214.439H325.401C328.409 214.439 330.869 216.878 330.869 219.907C330.869 220.151 330.666 220.354 330.401 220.354ZM310.602 219.44H329.934C329.71 217.143 327.759 215.333 325.401 215.333H315.135C312.777 215.333 310.826 217.143 310.602 219.44Z" fill="#7352AD"/>
<path d="M322.717 214.621L324.363 204.782C325.542 197.83 320.847 192.179 313.874 192.179H252.383C245.431 192.179 238.824 197.83 237.665 204.782L235.999 214.621H240.715L241.995 206.957C242.91 201.55 248.033 197.159 253.46 197.159H311.13C316.558 197.159 320.196 201.55 319.302 206.957L318.001 214.621H322.717Z" fill="white"/>
<path fill-rule="evenodd" clip-rule="evenodd" d="M322.717 215.068H318.001C317.879 215.068 317.757 215.007 317.656 214.906C317.574 214.804 317.534 214.662 317.554 214.54L318.855 206.896C319.261 204.376 318.692 202.018 317.208 200.27C315.745 198.542 313.59 197.607 311.13 197.607H253.46C248.256 197.607 243.317 201.835 242.443 207.039L241.162 214.682C241.121 214.906 240.938 215.068 240.715 215.068H235.999C235.877 215.068 235.755 215.007 235.653 214.906C235.572 214.804 235.531 214.662 235.552 214.54L237.218 204.721C238.418 197.546 245.228 191.732 252.383 191.732H313.875C317.351 191.732 320.4 193.074 322.473 195.513C324.567 198.013 325.4 201.327 324.811 204.864L323.164 214.682C323.124 214.906 322.941 215.068 322.717 215.068ZM318.55 214.154H322.331L323.917 204.721C324.465 201.449 323.713 198.379 321.782 196.102C319.892 193.866 317.086 192.626 313.875 192.626H252.383C245.654 192.626 239.231 198.115 238.113 204.864L236.548 214.154H240.329L241.548 206.896C242.504 201.266 247.83 196.692 253.46 196.692H311.13C313.854 196.692 316.253 197.769 317.899 199.68C319.546 201.652 320.217 204.254 319.729 207.039L318.55 214.154Z" fill="#7352AD"/>
<path d="M310.825 188.114H256.814C254.639 188.114 252.566 189.883 252.2 192.058L251.407 196.774C251.041 198.949 252.505 200.717 254.68 200.717H308.711C310.886 200.717 312.939 198.949 313.305 196.774L314.098 192.058C314.464 189.883 313 188.114 310.825 188.114Z" fill="white"/>
<path fill-rule="evenodd" clip-rule="evenodd" d="M308.711 201.165H254.68C253.501 201.165 252.464 200.717 251.773 199.884C251.041 199.03 250.757 197.892 250.96 196.713L251.753 191.977C252.159 189.598 254.416 187.667 256.814 187.667H310.825C312.004 187.667 313.041 188.114 313.752 188.948C314.464 189.801 314.749 190.94 314.545 192.139L313.752 196.855C313.366 199.234 311.09 201.165 308.711 201.165ZM256.814 188.561C254.843 188.561 252.972 190.167 252.647 192.139L251.854 196.855C251.692 197.79 251.915 198.644 252.464 199.295C252.993 199.925 253.785 200.27 254.68 200.27H308.711C310.663 200.27 312.533 198.664 312.858 196.713L313.671 191.977C313.813 191.041 313.61 190.188 313.061 189.537C312.533 188.907 311.74 188.561 310.825 188.561H256.814Z" fill="#7352AD"/>
<path d="M277.732 201.165H254.68C253.501 201.165 252.464 200.717 251.773 199.884C251.041 199.03 250.757 197.892 250.96 196.713L251.753 191.977C252.159 189.598 254.416 187.667 256.814 187.667H274.825C275.069 187.667 275.272 187.87 275.272 188.114C275.272 188.358 275.069 188.561 274.825 188.561H256.814C254.843 188.561 252.972 190.167 252.647 192.139L251.854 196.855C251.692 197.79 251.915 198.644 252.464 199.295C252.993 199.925 253.785 200.27 254.68 200.27H277.732C277.976 200.27 278.179 200.474 278.179 200.717C278.179 200.961 277.976 201.165 277.732 201.165Z" fill="#7352AD"/>
<path d="M329.283 360.291C329.12 360.291 328.978 360.209 328.897 360.067C328.775 359.843 328.836 359.579 329.059 359.437L350.017 347.504V229.217C350.017 228.973 350.2 228.77 350.465 228.77C350.708 228.77 350.912 228.973 350.912 229.217V347.769C350.912 347.931 350.83 348.074 350.688 348.155L329.507 360.23C329.439 360.27 329.364 360.291 329.283 360.291Z" fill="#7352AD"/>
<path d="M328.47 217.205C328.47 217.205 337.882 220.721 341.582 217.774C345.281 214.806 335.849 209.826 333.633 210.191C331.418 210.557 328.47 217.205 328.47 217.205Z" fill="#7352AD"/>
<path d="M281.106 292.6L289.969 308.131L294.767 301.463L287.002 286.299L281.106 292.6Z" fill="white"/>
<path fill-rule="evenodd" clip-rule="evenodd" d="M289.969 308.578C289.956 308.578 289.949 308.578 289.949 308.578C289.786 308.557 289.644 308.476 289.583 308.354L280.7 292.824C280.598 292.641 280.639 292.438 280.761 292.275L286.676 285.994C286.778 285.892 286.92 285.831 287.083 285.851C287.225 285.872 287.347 285.973 287.408 286.095L295.173 301.26C295.254 301.402 295.234 301.585 295.132 301.727L290.335 308.395C290.254 308.496 290.111 308.578 289.969 308.578ZM281.655 292.661L290.01 307.297L294.238 301.422L286.9 287.091L281.655 292.661Z" fill="#7352AD"/>
<path d="M286.9 305.752C289.238 310.57 295.153 322.279 300.865 327.889C302.247 329.251 304.605 328.621 305.093 326.731C306.882 319.982 308.081 305.895 301.434 294.816C301.434 294.816 298.263 294.45 292.348 295.548L293.669 301.097L292.937 300.569C291.84 299.796 290.356 299.857 289.339 300.731L287.632 302.195C286.615 303.069 286.31 304.533 286.9 305.752Z" fill="#7352AD"/>
<path d="M301.8 326.324C301.746 326.324 301.692 326.311 301.638 326.283C301.394 326.202 301.292 325.938 301.373 325.714C306.415 312.359 299.605 296.625 299.523 296.463C299.442 296.239 299.544 295.975 299.767 295.873C299.991 295.771 300.255 295.873 300.357 296.117C300.438 296.259 307.39 312.339 302.227 326.04C302.146 326.202 301.983 326.324 301.8 326.324Z" fill="white"/>
<path d="M290.335 312.928C290.193 312.928 290.05 312.867 289.949 312.725C289.827 312.522 289.888 312.237 290.091 312.095L294.523 309.229C294.726 309.086 295.01 309.147 295.153 309.351C295.295 309.574 295.234 309.839 295.01 309.981L290.579 312.867C290.498 312.908 290.416 312.928 290.335 312.928Z" fill="white"/>
<path d="M292.551 316.872C292.429 316.872 292.287 316.811 292.205 316.689C292.043 316.506 292.083 316.221 292.287 316.059L296.352 312.948C296.535 312.786 296.82 312.827 296.982 313.03C297.125 313.213 297.084 313.497 296.901 313.66L292.835 316.77C292.754 316.851 292.653 316.872 292.551 316.872Z" fill="white"/>
<path d="M253.013 292.966C253.013 293.332 244.882 311.078 244.882 311.078L254.111 311.81L260.392 296.665L253.013 292.966Z" fill="white"/>
<path fill-rule="evenodd" clip-rule="evenodd" d="M254.111 312.277C254.097 312.277 254.091 312.277 254.091 312.277L244.842 311.525C244.699 311.525 244.557 311.444 244.496 311.302C244.415 311.18 244.415 311.017 244.476 310.895C247.606 304.045 252.322 293.637 252.566 292.885C252.586 292.763 252.668 292.641 252.769 292.58C252.912 292.498 253.074 292.478 253.217 292.559L260.596 296.259C260.819 296.361 260.9 296.605 260.819 296.828L254.538 311.993C254.457 312.155 254.294 312.277 254.111 312.277ZM245.553 310.671L253.826 311.342L259.823 296.869L253.237 293.576C252.749 294.816 251.082 298.617 245.553 310.671Z" fill="#7352AD"/>
<path d="M253.379 307.378C253.379 307.378 251.529 302.947 246.732 305.163C246.732 305.163 237.91 317.908 234.637 328.438C233.702 331.406 236.751 334.089 239.597 332.808C246.244 329.8 256.652 323.498 262.608 311.81C262.608 311.81 260.778 307.012 257.811 304.797L253.379 307.378Z" fill="#7352AD"/>
<path d="M237.341 330.044C236.955 330.044 236.731 330.024 236.69 330.024C236.426 329.983 236.263 329.739 236.304 329.495C236.345 329.251 236.568 329.089 236.812 329.129C236.914 329.129 246.732 330.268 260.027 311.932C260.189 311.729 260.453 311.668 260.657 311.83C260.86 311.973 260.921 312.257 260.758 312.461C248.907 328.804 239.821 330.044 237.341 330.044Z" fill="white"/>
<path d="M244.882 320.043C244.801 320.043 244.726 320.022 244.659 319.982L240.207 317.38C240.003 317.258 239.922 316.994 240.044 316.77C240.186 316.546 240.451 316.485 240.674 316.607L245.106 319.189C245.329 319.311 245.39 319.596 245.268 319.819C245.187 319.962 245.024 320.043 244.882 320.043Z" fill="white"/>
<path d="M247.098 316.709C247.017 316.709 246.942 316.689 246.874 316.648L242.077 314.066C241.853 313.945 241.772 313.68 241.894 313.457C242.016 313.233 242.28 313.152 242.504 313.274L247.301 315.855C247.525 315.977 247.606 316.242 247.484 316.465C247.403 316.628 247.261 316.709 247.098 316.709Z" fill="white"/>
<path d="M300.316 203.483C300.316 203.483 276.227 207.793 258.868 225.986C254.477 230.6 252.932 237.207 254.822 243.285C258.664 255.726 267.06 278.452 281.106 295.548L291.819 286.299C291.819 286.299 289.237 264.853 282.204 251.558C275.191 238.244 316.212 209.399 316.212 209.399L300.316 203.483Z" fill="white"/>
<path fill-rule="evenodd" clip-rule="evenodd" d="M281.106 295.995C281.093 295.995 281.079 295.995 281.065 295.995C280.943 295.995 280.821 295.934 280.74 295.832C266.592 278.595 258.156 255.583 254.395 243.407C252.464 237.187 254.05 230.397 258.542 225.681C275.801 207.569 299.991 203.077 300.235 203.036C300.316 203.023 300.397 203.029 300.478 203.056L316.375 208.972C316.517 209.033 316.639 209.175 316.659 209.338C316.68 209.5 316.598 209.663 316.476 209.765C316.07 210.049 275.841 238.528 282.61 251.335C289.583 264.568 292.246 286.034 292.266 286.258C292.286 286.4 292.225 286.543 292.103 286.644L281.391 295.893C281.309 295.954 281.208 295.995 281.106 295.995ZM300.275 203.951C298.425 204.317 275.618 209.073 259.193 226.311C254.924 230.784 253.42 237.227 255.249 243.143C258.969 255.177 267.283 277.822 281.147 294.897L291.331 286.116C291.026 283.737 288.322 264.101 281.797 251.762C275.109 239.057 309.667 213.525 315.257 209.521L300.275 203.951Z" fill="#7352AD"/>
<path d="M250.045 296.3L262.608 299.979C262.608 299.979 285.538 251.558 292.185 244.525C298.832 237.491 311.781 226.027 325.441 221.961C339.122 217.895 339.122 207.549 339.122 207.549L315.847 200.901C315.847 200.901 283.322 214.948 272.589 230.844C261.876 246.741 250.045 296.3 250.045 296.3Z" fill="white"/>
<path fill-rule="evenodd" clip-rule="evenodd" d="M262.608 300.446C262.567 300.446 262.527 300.44 262.486 300.426L249.924 296.726C249.7 296.645 249.558 296.422 249.619 296.178C249.741 295.69 261.571 246.375 272.223 230.6C282.895 214.765 315.338 200.617 315.664 200.474C315.765 200.434 315.867 200.434 315.969 200.454L339.244 207.122C339.447 207.162 339.569 207.345 339.569 207.548C339.569 207.65 339.407 218.282 325.584 222.408C310.317 226.941 296.413 240.723 292.51 244.83C285.985 251.721 263.259 299.694 263.035 300.182C262.954 300.345 262.791 300.446 262.608 300.446ZM250.594 295.974L262.385 299.45C264.621 294.714 285.457 250.969 291.86 244.22C295.783 240.053 309.83 226.148 325.319 221.534C337.15 218.017 338.492 209.663 338.654 207.874L315.867 201.369C313.489 202.426 283.119 216.025 272.975 231.088C262.933 245.968 251.773 291.136 250.594 295.974Z" fill="#7352AD"/>
<path d="M357.966 169.455C351.684 156.893 341.338 155.043 341.338 155.043L323.591 153.559C318.062 153.193 312.147 156.608 309.972 161.731L293.669 199.784C293.669 199.784 296.982 208.668 311.781 210.131C326.559 211.615 336.723 210.7 341.521 216.616C344.692 220.498 344.59 194.499 342.781 173.927L357.966 169.455Z" fill="white"/>
<path fill-rule="evenodd" clip-rule="evenodd" d="M342.13 217.449C341.846 217.449 341.52 217.327 341.175 216.9C337.577 212.449 330.625 211.981 320.989 211.331C318.204 211.127 315.054 210.924 311.72 210.578C296.84 209.094 293.384 200.313 293.242 199.947C293.201 199.825 293.201 199.703 293.242 199.601L309.545 161.548C311.781 156.344 317.839 152.725 323.632 153.112L341.378 154.596C341.52 154.616 352.071 156.628 358.372 169.252C358.433 169.374 358.433 169.516 358.393 169.638C358.332 169.76 358.23 169.862 358.108 169.902L343.248 174.253C344.529 188.889 345.586 216.128 342.456 217.388C342.354 217.429 342.252 217.449 342.13 217.449ZM294.157 199.784C294.706 200.963 298.608 208.363 311.822 209.684C315.135 210.009 318.286 210.233 321.05 210.416C330.909 211.107 338.024 211.574 341.886 216.331C342.049 216.534 342.13 216.555 342.13 216.555C342.171 216.534 343.533 215.843 343.594 202.142C343.614 193.849 343.147 183.319 342.313 173.968C342.293 173.744 342.435 173.541 342.638 173.48L357.315 169.191C351.196 157.381 341.358 155.51 341.256 155.49L323.571 154.006C318.143 153.64 312.472 157.035 310.378 161.914L294.157 199.784Z" fill="#7352AD"/>
<path d="M310.521 202.244L318.652 198.544L324.933 201.126C324.933 201.126 359.002 197.711 343.919 173.582C343.858 173.48 355.425 170.207 355.425 170.207C355.425 170.207 369.166 202.976 325.685 203.707C325.685 203.707 323.469 204.46 320.501 202.976C317.554 201.492 312.37 204.46 310.521 202.244Z" fill="white"/>
<path fill-rule="evenodd" clip-rule="evenodd" d="M324.201 204.358C323.225 204.358 321.863 204.155 320.298 203.382C319.058 202.752 317.269 203.017 315.541 203.281C313.366 203.586 311.334 203.891 310.175 202.529C310.094 202.407 310.053 202.264 310.094 202.142C310.114 202 310.216 201.878 310.338 201.817L318.469 198.118C318.591 198.077 318.713 198.077 318.835 198.118L325.014 200.659C326.478 200.496 341.886 198.483 346.196 189.722C348.31 185.392 347.415 180.046 343.533 173.826C343.472 173.704 343.452 173.562 343.492 173.419C343.614 173.135 343.634 173.074 355.303 169.781C355.526 169.72 355.75 169.821 355.831 170.045C355.892 170.167 361.137 182.973 354.713 192.812C349.977 200.089 340.219 203.911 325.746 204.155C325.563 204.216 325.014 204.358 324.201 204.358ZM318.306 202.081C319.18 202.081 319.993 202.203 320.705 202.569C323.449 203.931 325.522 203.281 325.543 203.281C325.583 203.267 325.624 203.261 325.665 203.261C339.874 203.017 349.387 199.337 353.961 192.324C359.531 183.807 355.933 172.891 355.14 170.756C351.379 171.813 346.196 173.318 344.59 173.826C348.411 180.127 349.225 185.596 347.009 190.108C342.293 199.744 325.685 201.512 324.994 201.573C324.913 201.587 324.838 201.573 324.77 201.533L318.672 199.032L311.374 202.346C312.309 202.834 313.814 202.61 315.399 202.386C316.375 202.244 317.371 202.081 318.306 202.081Z" fill="#7352AD"/>
<path d="M279.541 205.17H311.598L287.835 168.6C287.082 167.462 285.781 166.771 284.399 166.771H258.38C256.733 166.771 255.717 168.54 256.611 169.901L279.541 205.17Z" fill="#7352AD"/>
<path d="M273.138 179.597C274.195 181.183 276.431 182.484 278.138 182.484C279.866 182.484 280.415 181.183 279.378 179.597C278.342 177.991 276.106 176.69 274.378 176.69C272.65 176.69 272.101 177.991 273.138 179.597Z" fill="white"/>
<path fill-rule="evenodd" clip-rule="evenodd" d="M278.138 182.931C276.268 182.931 273.89 181.569 272.772 179.841C272.142 178.866 271.999 177.91 272.386 177.219C272.711 176.589 273.422 176.243 274.378 176.243C276.268 176.243 278.626 177.605 279.765 179.333C280.374 180.309 280.517 181.264 280.151 181.956C279.805 182.586 279.094 182.931 278.138 182.931ZM274.378 177.138C273.768 177.138 273.341 177.321 273.178 177.646C272.955 178.053 273.077 178.662 273.524 179.333C274.479 180.797 276.593 182.037 278.138 182.037C278.748 182.037 279.175 181.854 279.358 181.529C279.561 181.122 279.439 180.512 278.992 179.841C278.057 178.378 275.923 177.138 274.378 177.138Z" fill="#7352AD"/>
<path d="M281.797 207.914H331.113C332.414 207.914 333.471 206.857 333.471 205.556V204.926H279.419V205.556C279.419 206.857 280.476 207.914 281.797 207.914Z" fill="#7352AD"/>
<path d="M344.671 68.5282C358.23 64.239 375.793 83.713 372.256 99.7313C371.281 104.163 372.358 110.83 367.52 113.29C358.921 117.62 353.534 112.375 351.319 115.851C349.408 118.86 356.197 123.21 355.384 129.532C354.165 138.903 337.333 143.436 335.422 143.944C333.999 144.331 313.915 149.473 304.382 138.781C302.085 136.199 299.076 131.219 300.682 128.048C302.227 125.039 306.943 125.69 308.081 122.498C309.077 119.754 305.906 118.209 306.232 115.119C306.841 109.123 319.201 108.818 320.644 102.537C321.803 97.5156 314.607 94.5681 315.847 89.5878C316.822 85.5832 322.006 85.4815 330.259 80.3589C340.138 74.2199 339.528 70.1544 344.671 68.5282Z" fill="#7352AD"/>
<path d="M329.507 152.462C329.182 152.299 324.73 147.034 322.128 143.944C322.331 143.091 322.311 142.826 322.23 141.525C322.23 141.525 323.571 140.163 323.043 138.415C322.413 136.382 320.481 138.009 320.481 138.009C320.481 138.009 319.587 136.443 316.213 139.147C312.838 141.851 309.281 138.558 309.281 138.558C309.281 138.558 309.281 140.59 311.049 143.05C312.045 144.412 312.208 146.201 312.249 147.868L314.139 147.603C315.176 148.823 315.948 149.433 317.392 150.022C317.392 150.022 318.51 149.819 319.689 148.843L321.762 153.559L319.648 154.677C319.648 154.677 319.16 157.625 324.71 158.377C330.259 159.109 334.691 154.677 334.691 154.677C334.691 154.677 331.723 153.559 329.507 152.462Z" fill="white"/>
<path fill-rule="evenodd" clip-rule="evenodd" d="M325.99 158.906C325.543 158.906 325.096 158.878 324.649 158.824C322.29 158.499 320.664 157.767 319.79 156.608C319.038 155.592 319.18 154.637 319.201 154.596C319.221 154.454 319.302 154.332 319.424 154.271L321.172 153.356L319.506 149.555C318.428 150.287 317.513 150.469 317.473 150.469C317.378 150.483 317.29 150.476 317.209 150.449C315.826 149.86 314.993 149.27 313.956 148.091L312.31 148.315C312.188 148.335 312.066 148.294 311.964 148.213C311.862 148.132 311.801 148.01 311.801 147.888C311.761 146.241 311.598 144.554 310.683 143.314C308.854 140.753 308.833 138.639 308.833 138.557C308.833 138.374 308.935 138.212 309.098 138.151C309.26 138.07 309.443 138.11 309.586 138.232C309.728 138.354 312.899 141.22 315.928 138.801C317.534 137.5 318.855 136.951 319.851 137.134C320.136 137.195 320.359 137.297 320.522 137.419C320.929 137.155 321.66 136.789 322.351 136.992C322.88 137.155 323.266 137.582 323.47 138.273C323.978 139.919 323.063 141.241 322.697 141.688V141.708C322.758 142.725 322.778 143.111 322.616 143.822C328.551 150.876 329.568 151.913 329.751 152.075C331.906 153.153 334.812 154.23 334.853 154.25C334.995 154.311 335.097 154.433 335.138 154.576C335.158 154.738 335.117 154.881 335.016 155.003C334.833 155.165 331.031 158.906 325.99 158.906ZM320.095 154.942C320.095 155.186 320.197 155.633 320.542 156.08C321.254 157.015 322.717 157.645 324.77 157.93C328.938 158.479 332.515 155.917 333.837 154.82C332.82 154.433 330.869 153.641 329.304 152.868C329.161 152.787 328.856 152.624 321.782 144.249C321.701 144.127 321.66 143.985 321.701 143.843C321.864 143.09 321.864 142.867 321.803 141.749L321.782 141.546C321.782 141.424 321.823 141.281 321.904 141.2C321.965 141.159 323.063 140.001 322.616 138.537C322.494 138.158 322.318 137.934 322.087 137.866C321.681 137.744 321.01 138.151 320.766 138.354C320.664 138.435 320.522 138.476 320.4 138.456C320.258 138.435 320.156 138.354 320.075 138.232C320.075 138.232 319.953 138.07 319.648 138.029C319.221 137.968 318.266 138.07 316.497 139.492C313.936 141.546 311.252 140.428 309.891 139.574C310.073 140.346 310.5 141.505 311.415 142.786C312.371 144.087 312.614 145.733 312.696 147.359L314.078 147.156C314.241 147.136 314.383 147.197 314.485 147.298C315.481 148.477 316.172 149.026 317.432 149.555C317.717 149.473 318.55 149.209 319.404 148.498C319.506 148.416 319.648 148.376 319.79 148.416C319.932 148.437 320.034 148.538 320.095 148.66L322.169 153.376C322.27 153.6 322.169 153.864 321.965 153.966L320.095 154.942Z" fill="#7352AD"/>
<path d="M319.689 149.291C319.567 149.291 319.445 149.251 319.343 149.149C319.181 148.966 319.201 148.682 319.384 148.519L319.994 147.97C320.177 147.808 320.461 147.807 320.624 147.99C320.786 148.173 320.786 148.478 320.603 148.641L319.994 149.19C319.892 149.271 319.79 149.291 319.689 149.291Z" fill="#7352AD"/>
<path d="M141.292 88.3672L121.452 134.308L138.995 128.515L148.671 144.289L160.583 95.2177L141.292 88.3672Z" fill="white"/>
<path fill-rule="evenodd" clip-rule="evenodd" d="M148.671 144.736C148.508 144.736 148.366 144.655 148.284 144.513L138.791 129.064L121.594 134.735C121.431 134.796 121.249 134.735 121.127 134.613C121.005 134.471 120.964 134.288 121.045 134.125L140.885 88.1843C140.966 87.9607 141.231 87.8591 141.454 87.9404L160.725 94.7909C160.949 94.8722 161.071 95.0958 161.01 95.3194L149.118 144.391C149.077 144.574 148.915 144.696 148.752 144.736C148.725 144.736 148.698 144.736 148.671 144.736ZM138.995 128.067C139.157 128.067 139.3 128.149 139.381 128.271L148.488 143.11L160.034 95.5024L141.536 88.9365L122.265 133.556L138.852 128.088C138.907 128.074 138.954 128.067 138.995 128.067Z" fill="#7352AD"/>
<path d="M158.774 96.9047L172.333 145.082L182.293 129.51L199.755 135.649L178.045 90.0542L158.774 96.9047Z" fill="white"/>
<path fill-rule="evenodd" clip-rule="evenodd" d="M172.333 145.529C172.319 145.529 172.299 145.529 172.272 145.529C172.089 145.488 171.946 145.366 171.906 145.204L158.327 97.0471C158.266 96.8031 158.388 96.5592 158.611 96.4982L177.882 89.6274C178.106 89.5461 178.35 89.6477 178.451 89.8713L200.161 135.446C200.243 135.609 200.202 135.812 200.08 135.934C199.958 136.076 199.775 136.117 199.592 136.076L182.476 130.059L172.719 145.326C172.637 145.448 172.495 145.529 172.333 145.529ZM159.323 97.1894L172.495 143.984L181.907 129.267C182.029 129.104 182.252 129.023 182.456 129.084L198.881 134.857L177.801 90.6235L159.323 97.1894Z" fill="#7352AD"/>
<path d="M198.21 76.6166L192.802 83.2028L195.282 91.334L187.761 95.3182L186.948 103.815L178.471 104.628L174.487 112.15L166.356 109.649L159.77 115.056L153.204 109.649L145.073 112.15L141.088 104.628L132.612 103.815L131.799 95.3182L124.277 91.334L126.757 83.2028L121.35 76.6166L126.757 70.0507L124.277 61.8993L131.799 57.9151L132.612 49.4384L141.088 48.6253L145.073 41.0836L153.204 43.584L159.77 38.1768L166.356 43.584L174.487 41.0836L178.471 48.6253L186.948 49.4384L187.761 57.9151L195.282 61.8993L192.782 70.0507L198.21 76.6166Z" fill="#7352AD"/>
<path d="M186.765 76.8594C186.765 91.8816 174.568 104.078 159.546 104.078C144.524 104.078 132.327 91.8816 132.327 76.8594C132.327 61.8168 144.524 49.6201 159.546 49.6201C174.568 49.6201 186.765 61.8168 186.765 76.8594Z" fill="white"/>
<path fill-rule="evenodd" clip-rule="evenodd" d="M159.546 104.525C144.3 104.525 131.88 92.1052 131.88 76.8593C131.88 61.5931 144.3 49.1729 159.546 49.1729C174.792 49.1729 187.212 61.5931 187.212 76.8593C187.212 92.1052 174.792 104.525 159.546 104.525ZM159.546 50.0876C144.788 50.0876 132.795 62.081 132.795 76.8593C132.795 91.6173 144.788 103.631 159.546 103.631C174.304 103.631 186.297 91.6173 186.297 76.8593C186.297 62.081 174.304 50.0876 159.546 50.0876Z" fill="#7352AD"/>
<path d="M158.204 90.6225C157.838 90.6225 157.493 90.4802 157.229 90.2159L146.78 79.3405C146.272 78.812 146.272 77.9582 146.821 77.4297C147.349 76.9215 148.223 76.9215 148.731 77.4704L158.042 87.1261L171.397 67.6927C171.824 67.0625 172.678 66.9202 173.287 67.3471C173.897 67.7537 174.06 68.6075 173.633 69.2173L159.322 90.033C159.099 90.3785 158.733 90.5818 158.326 90.6225C158.286 90.6225 158.245 90.6225 158.204 90.6225Z" fill="#7352AD"/>
<path d="M267.162 73.3632L262.202 74.1356L258.99 70.6392C258.299 69.9074 256.978 70.2937 256.734 71.3101L255.656 76.0871L251.042 78.1808C250.046 78.6281 249.944 79.9494 250.879 80.4169L255.168 82.592L255.534 87.369C255.616 88.4057 256.876 88.8326 257.689 88.1008L261.409 84.6654L266.267 85.5395C267.304 85.7225 268.178 84.6654 267.751 83.7303L265.759 79.4412L268.402 75.1927C268.971 74.2779 268.239 73.2005 267.162 73.3632Z" fill="#7352AD"/>
<path d="M286.656 62.7322L281.777 63.7079L278.484 60.2929C277.773 59.5611 276.472 60.0286 276.289 61.0653L275.374 65.9237L270.881 68.2207C269.906 68.7086 269.845 70.0502 270.78 70.4974L275.089 72.5302L275.598 77.3479C275.699 78.3846 276.98 78.7708 277.752 77.978L281.33 74.38L286.127 75.0712C287.164 75.2135 288.018 74.1158 287.55 73.201L285.457 68.9322L287.916 64.5414C288.445 63.586 287.713 62.5289 286.656 62.7322Z" fill="#7352AD"/>
<path d="M307.817 53.8484L302.979 54.6006L299.91 50.9822C299.239 50.2097 297.938 50.596 297.714 51.653L296.596 56.552L292.083 58.6661C291.108 59.1133 291.006 60.4753 291.901 60.9632L296.047 63.2602L296.312 68.1795C296.373 69.2366 297.613 69.6838 298.405 68.9316L302.064 65.4556L306.76 66.3907C307.777 66.5736 308.63 65.4963 308.244 64.5408L306.354 60.1094L308.976 55.7592C309.545 54.8242 308.854 53.7061 307.817 53.8484Z" fill="#7352AD"/>
<path d="M328.226 45.1892L323.429 46.1447L320.197 42.6483C319.506 41.8961 318.225 42.3637 318.042 43.4207L317.127 48.3604L312.716 50.6574C311.761 51.1453 311.7 52.5276 312.615 52.9748L316.863 55.0686L317.351 59.9879C317.453 61.0449 318.693 61.4312 319.445 60.6587L322.962 57.02L327.698 57.7518C328.714 57.9144 329.548 56.7761 329.101 55.841L327.027 51.4909L329.466 47.0391C329.995 46.0837 329.243 44.986 328.226 45.1892Z" fill="#7352AD"/>
</svg>
